<?xml version="1.0" encoding="utf-8"?>
<!-- Generator: Adobe Illustrator 21.1.0, SVG Export Plug-In . SVG Version: 6.00 Build 0)  -->
<svg version="1.1" id="Layer_1" xmlns="http://www.w3.org/2000/svg" xmlns:xlink="http://www.w3.org/1999/xlink" x="0px" y="0px"
	 viewBox="0 0 512 512" style="enable-background:new 0 0 512 512;" xml:space="preserve">
<style type="text/css">
	.st0{fill:#FF7E7D;}
</style>
<g>
	<g>
		<path class="st0" d="M489.2,328.7h-13.9l-30.2-155.4c-4-24.1-13-43.2-26.9-56.6c-14-13.5-32.6-20.7-53.9-20.7
			c-8.4,0-16.5,1.3-24.3,3.9c-7.8-2.6-16-3.9-24.4-3.9c-10.4,0-20.4,2-29.8,5.9c-9.2-3.8-19.2-5.9-29.8-5.9
			c-10.5,0-20.6,2.1-29.8,5.9c-9.5-3.9-19.5-5.9-29.8-5.9c-8.3,0-16.5,1.3-24.4,3.9c-7.8-2.5-15.9-3.9-24.3-3.9
			c-21.3,0-39.9,7.1-53.9,20.7c-13.9,13.4-22.9,32.5-26.9,56.6L36.8,328.7H22.8C10.2,328.7,0,339,0,351.5c0,10.5,7.1,19.3,16.7,22
			l12.2,36.9c1.1,3.3,4.2,5.5,7.7,5.5h438.9c3.5,0,6.6-2.2,7.7-5.5l12.2-36.9c9.6-2.7,16.7-11.5,16.7-22
			C512,339,501.8,328.7,489.2,328.7z M364.3,112.1c35.1,0,58.2,22.7,64.9,63.9c0,0.1,0,0.2,0,0.2l29.6,152.5H347.4l-12.6-154.3
			c-0.1-16.5-5.3-31.9-14.1-44.5C332.3,118.5,347.9,112.1,364.3,112.1z M315.6,112.1c0.3,0,0.6,0,0.9,0c-2.2,1.7-4.4,3.5-6.4,5.5
			c-1.7-1.6-3.4-3.1-5.3-4.6C308.4,112.4,312,112.1,315.6,112.1z M196.4,112.1c3.6,0,7.2,0.3,10.8,0.9c-1.8,1.4-3.6,3-5.3,4.6
			c-2-1.9-4.2-3.8-6.4-5.5C195.8,112.1,196.1,112.1,196.4,112.1z M193.4,174.7c0-34.5,28.1-62.6,62.6-62.6s62.6,28.1,62.6,62.6
			c0,0.2,0,0.4,0,0.7l12.6,153.3H180.8l12.6-153.3C193.4,175.2,193.4,174.9,193.4,174.7z M82.8,176.3c0-0.1,0-0.2,0-0.2
			c6.7-41.2,29.8-63.9,64.9-63.9c16.4,0,32,6.4,43.6,17.7c-8.8,12.7-14,28-14.1,44.5l-12.6,154.3H53.2L82.8,176.3z M469.6,399.9
			H42.4L34,374.4h444L469.6,399.9z M489.2,358.2H22.8c-3.7,0-6.7-3-6.7-6.7c0-3.7,3-6.7,6.7-6.7h466.3c3.7,0,6.7,3,6.7,6.7
			C495.9,355.2,492.9,358.2,489.2,358.2z"/>
	</g>
</g>
</svg>
