<?xml version="1.0" encoding="utf-8"?>
<!-- Generator: Adobe Illustrator 22.0.1, SVG Export Plug-In . SVG Version: 6.00 Build 0)  -->
<svg version="1.1" id="Layer_1" xmlns="http://www.w3.org/2000/svg" xmlns:xlink="http://www.w3.org/1999/xlink" x="0px" y="0px"
	 viewBox="0 0 1374.2 41.9" style="enable-background:new 0 0 1374.2 41.9;" xml:space="preserve">
<path d="M1374,20.7c-1.7-1-2.1-1.4-3-2.4c-0.1-0.2-0.2-0.2-0.3-0.2c-0.2,0-0.3,0.1-0.3,0.3c0,0.1,0.2,0.7,0.3,0.9
	c0.2,0.4,0.4,0.7,0.7,1.1v0H979.7c-9.3,0-14,0.7-18.6,1.4c-4.7,0.7-9.5,1.4-19.1,1.4c-9.2,0-13.7-1.2-18.4-2.5
	c-4.7-1.2-9.6-2.5-19.3-2.5c-9.3,0-14.1,2-18.8,3.8c-4.6,1.9-9.4,3.9-18.9,3.9c-9.1,0-13.6-3-18.3-6.2c-4.7-3.2-9.6-6.5-19.4-6.5
	c-9.4,0-14.3,4.5-18.9,8.9c-4.8,4.5-9.4,8.8-18.8,8.8c-9,0-13.5-5.4-18.2-11.1c-4.8-5.7-9.7-11.6-19.5-11.6c-9.5,0-14.3,7.1-19,13.9
	c-4.8,7.1-9.4,13.8-18.7,13.8c-8.9,0-13.4-7.8-18.1-16.1c-4.8-8.3-9.7-17-19.6-17c-9.5,0-14.4,9.7-19,19.1c-4.6,9.3-9.4,19-18.7,19
	c-8.9,0-13.4-9.7-18.1-20C617.5,10.6,612.6,0,602.7,0c-9.6,0-14.4,10.4-19,20.5c-4.6,10-9.4,20.4-18.7,20.4c-8.9,0-13.4-9.7-18.1-20
	c-4.7-10.1-9.5-20.6-19.1-20.9v0c-0.1,0-0.2,0-0.2,0c-0.1,0-0.2,0-0.3,0v0c-9.2,0.4-14,10.6-18.5,20.5c-4.6,10-9.4,20.4-18.7,20.4
	c-8.9,0-13.4-9.7-18.1-20C467.2,10.6,462.3,0,452.4,0c-9.6,0-14.4,10.4-19,20.5c-4.6,10-9.4,20.4-18.7,20.4c-8.9,0-13.4-9.7-18.1-20
	C391.8,10.6,386.9,0,377,0c-9.6,0-14.4,10.4-19,20.5c-4.6,10-9.4,20.4-18.7,20.4c-8.9,0-13.4-9.7-18.1-20
	C316.4,10.6,311.5,0,301.6,0c-9.6,0-14.4,10.4-19,20.5c-4.6,10-9.4,20.4-18.7,20.4c-8.9,0-13.4-9.7-18.1-20
	C241,10.6,236.1,0,226.2,0c-9.6,0-14.4,10.4-19,20.5c-4.6,10-9.4,20.4-18.7,20.4c-8.9,0-13.4-9.7-18.1-20
	C165.6,10.6,160.7,0,150.8,0c-9.6,0-14.4,10.4-19,20.5c-4.6,10-9.4,20.4-18.7,20.4c-8.9,0-13.4-9.7-18.1-20C90.2,10.6,85.3,0,75.4,0
	c-9.6,0-14.4,10.4-19,20.5c-4.6,10-9.4,20.4-18.7,20.4c-8.9,0-13.4-9.7-18.1-20C14.8,10.6,9.9,0,0,0v1c9.3,0,14.1,10.4,18.7,20.4
	c4.7,10.1,9.5,20.5,19,20.5c9.9,0,14.8-10.6,19.6-20.9C62,10.7,66.5,1,75.4,1c9.3,0,14.1,10.4,18.7,20.4c4.7,10.1,9.5,20.5,19,20.5
	c9.9,0,14.8-10.6,19.6-20.9c4.7-10.3,9.2-20,18.1-20c9.3,0,14.1,10.4,18.7,20.4c4.7,10.1,9.5,20.5,19,20.5
	c9.9,0,14.8-10.6,19.6-20.9c4.7-10.3,9.2-20,18.1-20c9.3,0,14.1,10.4,18.7,20.4c4.7,10.1,9.5,20.5,19,20.5
	c9.9,0,14.8-10.6,19.6-20.9c4.7-10.3,9.2-20,18.1-20c9.3,0,14.1,10.4,18.7,20.4c4.7,10.1,9.5,20.5,19,20.5
	c9.9,0,14.8-10.6,19.6-20.9c4.7-10.3,9.2-20,18.1-20c9.3,0,14.1,10.4,18.7,20.4c4.7,10.1,9.5,20.5,19,20.5
	c9.9,0,14.8-10.6,19.6-20.9c4.7-10.3,9.2-20,18.1-20c9.3,0,14.1,10.4,18.7,20.4c4.7,10.1,9.5,20.5,19,20.5
	c9.9,0,14.8-10.6,19.6-20.9c4.7-10.2,9.1-19.8,17.9-19.9c9.1,0.2,13.9,10.4,18.4,20.4c4.7,10.1,9.5,20.5,19,20.5
	c9.9,0,14.8-10.6,19.6-20.9c4.7-10.3,9.2-20,18.1-20c9.3,0,14.1,10.4,18.7,20.4c4.7,10.1,9.5,20.5,19,20.5c9.9,0,14.8-9.9,19.6-19.5
	c4.7-9.6,9.2-18.6,18.1-18.6c9.3,0,14.1,8.4,18.7,16.5c4.7,8.2,9.5,16.6,19,16.6c9.9,0,14.8-7.2,19.5-14.2
	c4.7-6.9,9.2-13.5,18.2-13.5c9.4,0,13.9,5.5,18.7,11.3c4.7,5.6,9.5,11.4,19,11.4c9.8,0,14.7-4.6,19.5-9.1c4.7-4.4,9.2-8.6,18.2-8.6
	c9.5,0,14.2,3.2,18.9,6.3c4.6,3.1,9.5,6.4,18.8,6.4c9.7,0,14.6-2,19.3-3.9c4.8-1.9,9.2-3.8,18.4-3.8c9.5,0,14.4,1.3,19,2.5
	c4.6,1.2,9.4,2.5,18.7,2.5c9.7,0,14.5-0.7,19.2-1.4c4.6-0.7,9.3-1.4,18.5-1.4h391.7v0c-0.4,0.5-1,1.7-1,2c0,0.2,0.1,0.3,0.3,0.3
	c0.1,0,0.2-0.1,0.4-0.3c0.7-0.8,1.4-1.4,2.6-2c0.3-0.2,0.5-0.3,0.5-0.4C1374.2,20.8,1374.1,20.8,1374,20.7z"/>
</svg>
