<svg id="Layer_1" xmlns="http://www.w3.org/2000/svg" viewBox="0 0 512 512"><style>.st0{fill:#ff7e7d}</style><path class="st0" d="M489.2 328.7h-13.9l-30.2-155.4c-4-24.1-13-43.2-26.9-56.6-14-13.5-32.6-20.7-53.9-20.7-8.4 0-16.5 1.3-24.3 3.9-7.8-2.6-16-3.9-24.4-3.9-10.4 0-20.4 2-29.8 5.9-9.2-3.8-19.2-5.9-29.8-5.9-10.5 0-20.6 2.1-29.8 5.9-9.5-3.9-19.5-5.9-29.8-5.9-8.3 0-16.5 1.3-24.4 3.9-7.8-2.5-15.9-3.9-24.3-3.9-21.3 0-39.9 7.1-53.9 20.7-13.9 13.4-22.9 32.5-26.9 56.6L36.8 328.7h-14C10.2 328.7 0 339 0 351.5c0 10.5 7.1 19.3 16.7 22l12.2 36.9c1.1 3.3 4.2 5.5 7.7 5.5h438.9c3.5 0 6.6-2.2 7.7-5.5l12.2-36.9c9.6-2.7 16.7-11.5 16.7-22-.1-12.5-10.3-22.8-22.9-22.8zM364.3 112.1c35.1 0 58.2 22.7 64.9 63.9v.2l29.6 152.5H347.4l-12.6-154.3c-.1-16.5-5.3-31.9-14.1-44.5 11.6-11.4 27.2-17.8 43.6-17.8zm-48.7 0h.9c-2.2 1.7-4.4 3.5-6.4 5.5-1.7-1.6-3.4-3.1-5.3-4.6 3.6-.6 7.2-.9 10.8-.9zm-119.2 0c3.6 0 7.2.3 10.8.9-1.8 1.4-3.6 3-5.3 4.6-2-1.9-4.2-3.8-6.4-5.5h.9zm-3 62.6c0-34.5 28.1-62.6 62.6-62.6s62.6 28.1 62.6 62.6v.7l12.6 153.3H180.8l12.6-153.3v-.7zm-110.6 1.6v-.2c6.7-41.2 29.8-63.9 64.9-63.9 16.4 0 32 6.4 43.6 17.7-8.8 12.7-14 28-14.1 44.5l-12.6 154.3H53.2l29.6-152.4zm386.8 223.6H42.4L34 374.4h444l-8.4 25.5zm19.6-41.7H22.8a6.7 6.7 0 0 1 0-13.4h466.3c3.7 0 6.7 3 6.7 6.7.1 3.7-2.9 6.7-6.6 6.7z"/></svg>